<svg xmlns="http://www.w3.org/2000/svg" viewBox="0 0 1000 1000" width="1000" height="1000" role="img" aria-label="Abstract generated cover artwork">
  <defs>
    <linearGradient id="g-2422" x1="0" y1="0" x2="1" y2="1">
      <stop offset="0" stop-color="hsla(188.73 82% 38% / 1)"/>
      <stop offset=".55" stop-color="hsla(200.73 88% 28% / 1)"/>
      <stop offset="1" stop-color="hsla(214.73 74% 18% / 1)"/>
    </linearGradient>
    <radialGradient id="glow-2422" cx=".5" cy=".38" r=".72">
      <stop offset="0" stop-color="hsla(182.73 70% 91% / 0.95)"/>
      <stop offset="1" stop-color="hsla(198.73 58% 76% / 0.95)"/>
    </radialGradient>
    <pattern id="dot-2422" width="14" height="14" patternUnits="userSpaceOnUse">
      <circle cx="7" cy="7" r="2.1" fill="hsla(206.73 70% 34% / 1)"/>
    </pattern>
    <radialGradient id="vig-2422" cx=".5" cy=".5" r=".78">
      <stop offset=".55" stop-color="#5A2A10" stop-opacity="0"/>
      <stop offset="1" stop-color="#5A2A10" stop-opacity=".22"/>
    </radialGradient>
    <filter id="grain-2422" x="0" y="0" width="100%" height="100%">
      <feTurbulence type="fractalNoise" baseFrequency=".9" numOctaves="3" seed="22" result="n"/>
      <feColorMatrix in="n" type="saturate" values="0"/>
    </filter>
    <filter id="soft-2422" x="-20%" y="-20%" width="140%" height="140%">
      <feGaussianBlur stdDeviation="14"/>
    </filter>
  </defs><rect width="1000" height="1000" fill="#F6EAD4"/>
  <rect width="1000" height="1000" fill="url(#glow-2422)"/>
  <rect y="520" width="1000" height="480" fill="url(#dot-2422)" opacity=".22"/><rect x="40" y="299.24" width="13.48" height="520.76" fill="url(#g-2422)" opacity="1"/><rect x="40" y="293.24" width="13.48" height="2.5" fill="hsla(188.73 90% 30% / 0.9)"/><rect x="56.48" y="344.01" width="13.48" height="475.99" fill="url(#g-2422)" opacity="0.99"/><rect x="56.48" y="338.01" width="13.48" height="2.5" fill="hsla(188.73 90% 30% / 0.9)"/><rect x="72.96" y="333.12" width="13.48" height="486.88" fill="url(#g-2422)" opacity="0.98"/><rect x="72.96" y="327.12" width="13.48" height="2.5" fill="hsla(188.73 90% 30% / 0.9)"/><rect x="89.45" y="343.3" width="13.48" height="476.7" fill="url(#g-2422)" opacity="0.97"/><rect x="89.45" y="337.3" width="13.48" height="2.5" fill="hsla(188.73 90% 30% / 0.9)"/><rect x="105.93" y="400.58" width="13.48" height="419.42" fill="url(#g-2422)" opacity="0.96"/><rect x="105.93" y="394.58" width="13.48" height="2.5" fill="hsla(188.73 90% 30% / 0.9)"/><rect x="122.41" y="385.91" width="13.48" height="434.09" fill="url(#g-2422)" opacity="0.95"/><rect x="122.41" y="379.91" width="13.48" height="2.5" fill="hsla(188.73 90% 30% / 0.9)"/><rect x="138.89" y="429.13" width="13.48" height="390.87" fill="url(#g-2422)" opacity="0.94"/><rect x="138.89" y="423.13" width="13.48" height="2.5" fill="hsla(188.73 90% 30% / 0.9)"/><rect x="155.38" y="425.69" width="13.48" height="394.31" fill="url(#g-2422)" opacity="0.93"/><rect x="155.38" y="419.69" width="13.48" height="2.5" fill="hsla(188.73 90% 30% / 0.9)"/><rect x="171.86" y="424.29" width="13.48" height="395.71" fill="url(#g-2422)" opacity="0.92"/><rect x="171.86" y="418.29" width="13.48" height="2.5" fill="hsla(188.73 90% 30% / 0.9)"/><rect x="188.34" y="473.53" width="13.48" height="346.47" fill="url(#g-2422)" opacity="0.92"/><rect x="188.34" y="467.53" width="13.48" height="2.5" fill="hsla(188.73 90% 30% / 0.9)"/><rect x="204.82" y="459.59" width="13.48" height="360.41" fill="url(#g-2422)" opacity="0.91"/><rect x="204.82" y="453.59" width="13.48" height="2.5" fill="hsla(188.73 90% 30% / 0.9)"/><rect x="221.3" y="492.3" width="13.48" height="327.7" fill="url(#g-2422)" opacity="0.9"/><rect x="221.3" y="486.3" width="13.48" height="2.5" fill="hsla(188.73 90% 30% / 0.9)"/><rect x="237.79" y="478.16" width="13.48" height="341.84" fill="url(#g-2422)" opacity="0.89"/><rect x="237.79" y="472.16" width="13.48" height="2.5" fill="hsla(188.73 90% 30% / 0.9)"/><rect x="254.27" y="520.24" width="13.48" height="299.76" fill="url(#g-2422)" opacity="0.88"/><rect x="254.27" y="514.24" width="13.48" height="2.5" fill="hsla(188.73 90% 30% / 0.9)"/><rect x="270.75" y="516.26" width="13.48" height="303.74" fill="url(#g-2422)" opacity="0.87"/><rect x="270.75" y="510.26" width="13.48" height="2.5" fill="hsla(188.73 90% 30% / 0.9)"/><rect x="287.23" y="543.12" width="13.48" height="276.88" fill="url(#g-2422)" opacity="0.86"/><rect x="287.23" y="537.12" width="13.48" height="2.5" fill="hsla(188.73 90% 30% / 0.9)"/><rect x="303.71" y="532.48" width="13.48" height="287.52" fill="url(#g-2422)" opacity="0.85"/><rect x="303.71" y="526.48" width="13.48" height="2.5" fill="hsla(188.73 90% 30% / 0.9)"/><rect x="320.2" y="532.51" width="13.48" height="287.49" fill="url(#g-2422)" opacity="0.84"/><rect x="320.2" y="526.51" width="13.48" height="2.5" fill="hsla(188.73 90% 30% / 0.9)"/><rect x="336.68" y="584.43" width="13.48" height="235.57" fill="url(#g-2422)" opacity="0.83"/><rect x="336.68" y="578.43" width="13.48" height="2.5" fill="hsla(188.73 90% 30% / 0.9)"/><rect x="353.16" y="558.86" width="13.48" height="261.14" fill="url(#g-2422)" opacity="0.83"/><rect x="353.16" y="552.86" width="13.48" height="2.5" fill="hsla(188.73 90% 30% / 0.9)"/><rect x="369.64" y="566.18" width="13.48" height="253.82" fill="url(#g-2422)" opacity="0.82"/><rect x="369.64" y="560.18" width="13.48" height="2.5" fill="hsla(188.73 90% 30% / 0.9)"/><rect x="386.13" y="593.45" width="13.48" height="226.55" fill="url(#g-2422)" opacity="0.81"/><rect x="386.13" y="587.45" width="13.48" height="2.5" fill="hsla(188.73 90% 30% / 0.9)"/><rect x="402.61" y="596.26" width="13.48" height="223.74" fill="url(#g-2422)" opacity="0.8"/><rect x="402.61" y="590.26" width="13.48" height="2.5" fill="hsla(188.73 90% 30% / 0.9)"/><rect x="419.09" y="601.85" width="13.48" height="218.15" fill="url(#g-2422)" opacity="0.79"/><rect x="419.09" y="595.85" width="13.48" height="2.5" fill="hsla(188.73 90% 30% / 0.9)"/><rect x="435.57" y="589.57" width="13.48" height="230.43" fill="url(#g-2422)" opacity="0.78"/><rect x="435.57" y="583.57" width="13.48" height="2.5" fill="hsla(188.73 90% 30% / 0.9)"/><rect x="452.05" y="578.36" width="13.48" height="241.64" fill="url(#g-2422)" opacity="0.77"/><rect x="452.05" y="572.36" width="13.48" height="2.5" fill="hsla(188.73 90% 30% / 0.9)"/><rect x="468.54" y="487.01" width="13.48" height="332.99" fill="url(#g-2422)" opacity="0.76"/><rect x="468.54" y="481.01" width="13.48" height="2.5" fill="hsla(188.73 90% 30% / 0.9)"/><rect x="485.02" y="428.86" width="13.48" height="391.14" fill="url(#g-2422)" opacity="0.75"/><rect x="485.02" y="422.86" width="13.48" height="2.5" fill="hsla(188.73 90% 30% / 0.9)"/><rect x="501.5" y="358.08" width="13.48" height="461.92" fill="url(#g-2422)" opacity="0.75"/><rect x="501.5" y="352.08" width="13.48" height="2.5" fill="hsla(188.73 90% 30% / 0.9)"/><rect x="517.98" y="310.72" width="13.48" height="509.28" fill="url(#g-2422)" opacity="0.74"/><rect x="517.98" y="304.72" width="13.48" height="2.5" fill="hsla(188.73 90% 30% / 0.9)"/><rect x="534.46" y="336.23" width="13.48" height="483.77" fill="url(#g-2422)" opacity="0.73"/><rect x="534.46" y="330.23" width="13.48" height="2.5" fill="hsla(188.73 90% 30% / 0.9)"/><rect x="550.95" y="370.08" width="13.48" height="449.92" fill="url(#g-2422)" opacity="0.72"/><rect x="550.95" y="364.08" width="13.48" height="2.5" fill="hsla(188.73 90% 30% / 0.9)"/><rect x="567.43" y="397.63" width="13.48" height="422.37" fill="url(#g-2422)" opacity="0.71"/><rect x="567.43" y="391.63" width="13.48" height="2.5" fill="hsla(188.73 90% 30% / 0.9)"/><rect x="583.91" y="471.68" width="13.48" height="348.32" fill="url(#g-2422)" opacity="0.7"/><rect x="583.91" y="465.68" width="13.48" height="2.5" fill="hsla(188.73 90% 30% / 0.9)"/><rect x="600.39" y="507.66" width="13.48" height="312.34" fill="url(#g-2422)" opacity="0.69"/><rect x="600.39" y="501.66" width="13.48" height="2.5" fill="hsla(188.73 90% 30% / 0.9)"/><rect x="616.88" y="500.86" width="13.48" height="319.14" fill="url(#g-2422)" opacity="0.68"/><rect x="616.88" y="494.86" width="13.48" height="2.5" fill="hsla(188.73 90% 30% / 0.9)"/><rect x="633.36" y="465.76" width="13.48" height="354.24" fill="url(#g-2422)" opacity="0.67"/><rect x="633.36" y="459.76" width="13.48" height="2.5" fill="hsla(188.73 90% 30% / 0.9)"/><rect x="649.84" y="457.48" width="13.48" height="362.52" fill="url(#g-2422)" opacity="0.67"/><rect x="649.84" y="451.48" width="13.48" height="2.5" fill="hsla(188.73 90% 30% / 0.9)"/><rect x="666.32" y="426.61" width="13.48" height="393.39" fill="url(#g-2422)" opacity="0.66"/><rect x="666.32" y="420.61" width="13.48" height="2.5" fill="hsla(188.73 90% 30% / 0.9)"/><rect x="682.8" y="419.12" width="13.48" height="400.88" fill="url(#g-2422)" opacity="0.65"/><rect x="682.8" y="413.12" width="13.48" height="2.5" fill="hsla(188.73 90% 30% / 0.9)"/><rect x="699.29" y="428.1" width="13.48" height="391.9" fill="url(#g-2422)" opacity="0.64"/><rect x="699.29" y="422.1" width="13.48" height="2.5" fill="hsla(188.73 90% 30% / 0.9)"/><rect x="715.77" y="444.47" width="13.48" height="375.53" fill="url(#g-2422)" opacity="0.63"/><rect x="715.77" y="438.47" width="13.48" height="2.5" fill="hsla(188.73 90% 30% / 0.9)"/><rect x="732.25" y="452.99" width="13.48" height="367.01" fill="url(#g-2422)" opacity="0.62"/><rect x="732.25" y="446.99" width="13.48" height="2.5" fill="hsla(188.73 90% 30% / 0.9)"/><rect x="748.73" y="463.73" width="13.48" height="356.27" fill="url(#g-2422)" opacity="0.61"/><rect x="748.73" y="457.73" width="13.48" height="2.5" fill="hsla(188.73 90% 30% / 0.9)"/><rect x="765.21" y="503.75" width="13.48" height="316.25" fill="url(#g-2422)" opacity="0.6"/><rect x="765.21" y="497.75" width="13.48" height="2.5" fill="hsla(188.73 90% 30% / 0.9)"/><rect x="781.7" y="541.32" width="13.48" height="278.68" fill="url(#g-2422)" opacity="0.59"/><rect x="781.7" y="535.32" width="13.48" height="2.5" fill="hsla(188.73 90% 30% / 0.9)"/><rect x="798.18" y="553.64" width="13.48" height="266.36" fill="url(#g-2422)" opacity="0.58"/><rect x="798.18" y="547.64" width="13.48" height="2.5" fill="hsla(188.73 90% 30% / 0.9)"/><rect x="814.66" y="548.74" width="13.48" height="271.26" fill="url(#g-2422)" opacity="0.58"/><rect x="814.66" y="542.74" width="13.48" height="2.5" fill="hsla(188.73 90% 30% / 0.9)"/><rect x="831.14" y="459.98" width="13.48" height="360.02" fill="url(#g-2422)" opacity="0.57"/><rect x="831.14" y="453.98" width="13.48" height="2.5" fill="hsla(188.73 90% 30% / 0.9)"/><rect x="847.63" y="409.34" width="13.48" height="410.66" fill="url(#g-2422)" opacity="0.56"/><rect x="847.63" y="403.34" width="13.48" height="2.5" fill="hsla(188.73 90% 30% / 0.9)"/><rect x="864.11" y="387" width="13.48" height="433" fill="url(#g-2422)" opacity="0.55"/><rect x="864.11" y="381" width="13.48" height="2.5" fill="hsla(188.73 90% 30% / 0.9)"/><rect x="880.59" y="397.01" width="13.48" height="422.99" fill="url(#g-2422)" opacity="0.54"/><rect x="880.59" y="391.01" width="13.48" height="2.5" fill="hsla(188.73 90% 30% / 0.9)"/><rect x="897.07" y="427.5" width="13.48" height="392.5" fill="url(#g-2422)" opacity="0.53"/><rect x="897.07" y="421.5" width="13.48" height="2.5" fill="hsla(188.73 90% 30% / 0.9)"/><rect x="913.55" y="485.74" width="13.48" height="334.26" fill="url(#g-2422)" opacity="0.52"/><rect x="913.55" y="479.74" width="13.48" height="2.5" fill="hsla(188.73 90% 30% / 0.9)"/><rect x="930.04" y="492.61" width="13.48" height="327.39" fill="url(#g-2422)" opacity="0.51"/><rect x="930.04" y="486.61" width="13.48" height="2.5" fill="hsla(188.73 90% 30% / 0.9)"/><rect x="946.52" y="518.72" width="13.48" height="301.28" fill="url(#g-2422)" opacity="0.5"/><rect x="946.52" y="512.72" width="13.48" height="2.5" fill="hsla(188.73 90% 30% / 0.9)"/><line x1="40" y1="820" x2="960" y2="820" stroke="hsla(188.73 60% 34% / 0.45)" stroke-width="1"/><rect width="1000" height="1000" fill="url(#vig-2422)"/>
  <rect width="1000" height="1000" filter="url(#grain-2422)" opacity=".07" style="mix-blend-mode:multiply"/>
  <rect x="4" y="4" width="992" height="992" fill="none" stroke="#2A1508" stroke-opacity=".45" stroke-width="6"/>
  <rect x="24.5" y="24.5" width="951" height="951" fill="none" stroke="#F6EAD4" stroke-opacity=".75" stroke-width="3"/></svg>